<?xml version="1.0" encoding="UTF-8"?>
<svg xmlns="http://www.w3.org/2000/svg" viewBox="0 0 512 512">
  <defs>
    <style>
      .cls-1 {
        fill: #231f20;
      }

      .cls-2 {
        fill: #fff;
        stroke: #231f20;
        stroke-miterlimit: 10;
        stroke-width: 3px;
      }
    </style>
  </defs>
  <g id="Layer_3" data-name="Layer 3">
    <rect class="cls-2" x="17.34" y="17.34" width="477.33" height="477.33" rx="47.47" ry="47.47"/>
  </g>
  <g id="Layer_4" data-name="Layer 4">
    <path class="cls-1" d="M313.1,391.92s146.17-120.57,156.95-177.83c10.78-57.26-33.68-7.75-33.68-7.75l-61.3,72.41s-27.95,40.42-47.15,54.56c0,0,11.79,4.38,23.24-2.36,0,0-29.98,37.72-38.06,60.96Z"/>
    <path class="cls-1" d="M67.24,382.04s96.55-35.48,128.88-52.54c32.33-17.06,25.6-24.7,79.49-37.72,53.89-13.02,83.19,2.25,116.81-21.11,33.62-23.35,46.65-60.18,45.75-79.04-.9-18.86,6.74-34.02,23.13-41.88,16.39-7.86,17.4-6.85,17.4-6.85,0,0-17.96-5.73-27.06-6.51,0,0-15.27-19.42-29.53-17.85-14.26,1.57-21.44,3.48-38.84,25.26-17.4,21.78-18.86,19.76-30.54,19.53-11.68-.22-14.48-21.56-28.4-27.62-13.92-6.06-22.34-9.65-42.55-9.99-20.21-.34-79.15,13.92-94.3,18.3-15.16,4.38-139.77,41.99-137.98,48.27,1.8,6.29,10.1,8.31,39.52-.9,0,0,2.25,15.16,44.01-3.48,0,0,7.75,12.12,36.04,2.47,0,0,7.19,12.35,31.1,3.26,0,0,4.04,12.69,28.29,3.48,0,0-4.72,15.49,27.84,13.47,0,0-4.94,11.56,20.77,10.22,0,0-4.04,5.84,19.87,4.15,0,0-34.35,25.48-105.76,36.71-71.4,11.23-150.44,28.52-157.62,30.54-7.19,2.02,143.48-13.47,166.16-1.8,22.68,11.68-132.48,91.61-132.48,91.61Z"/>
  </g>
</svg>